<?xml version='1.0' encoding='utf-8'?>
<!--<svg xmlns="http://www.w3.org/2000/svg" version="1.1" width="170px" height="208px" viewBox="-0.75 0.0 170.2 208.25">-->
<svg xmlns="http://www.w3.org/2000/svg" version="1.1" width="400" height="400">
    <rect x="20" y="20" width="360" height="360" fill="#FFCF40"/>
    <circle cx="70" cy="70" r="40" fill="#FFFFFF"/>
    <circle cx="70" cy="70" r="30" fill="#000000"/>
    <circle cx="70" cy="70" r="20" fill="#FFFFFF"/>
    <circle cx="70" cy="70" r="10" fill="#000000"/>
    <circle cx="150" cy="70" r="40" fill="#FFFFFF"/>
    <circle cx="150" cy="70" r="30" fill="#000000"/>
    <circle cx="150" cy="70" r="20" fill="#FFFFFF"/>
    <circle cx="150" cy="70" r="10" fill="#000000"/>
    <path d="M 250 70 A 40 40 0 0 0 250 130 L 310 130 A 40 40 0 0 1 310 70 Z" fill="#FFCF40"/>
    <path d="M 250 70 A 40 40 0 0 1 250 130 L 310 130 A 40 40 0 0 0 310 70 Z" fill="#FFCF40"/>
    <path d="M 250 200 A 40 40 0 0 0 250 260 L 310 260 A 40 40 0 0 1 310 200 Z" fill="#FFCF40"/>
    <path d="M 250 200 A 40 40 0 0 1 250 260 L 310 260 A 40 40 0 0 0 310 200 Z" fill="#FFCF40"/>
    <path d="M 180 280 A 40 40 0 0 0 220 280 L 220 320 A 40 40 0 0 1 180 320 Z" fill="#FFCF40"/>
    <path d="M 180 280 A 40 40 0 0 1 220 280 L 220 320 A 40 40 0 0 0 180 320 Z" fill="#FFCF40"/>
    <path d="M 180 280 A 40 40 0 0 0 220 280 L 220 320 A 40 40 0 0 1 180 320 Z" fill="#FFCF40"/>
    <path d="M 180 280 A 40 40 0 0 1 220 280 L 220 320 A 40 40 0 0 0 180 320 Z" fill="#FFCF40"/>
    <circle cx="250" cy="200" r="10" fill="#000000"/>
    <circle cx="250" cy="200" r="5" fill="#FFFFFF"/>
    <circle cx="310" cy="200" r="10" fill="#000000"/>
    <circle cx="310" cy="200" r="5" fill="#FFFFFF"/>
    <circle cx="220" cy="280" r="10" fill="#000000"/>
    <circle cx="220" cy="280" r="5" fill="#FFFFFF"/>
    <circle cx="180" cy="280" r="10" fill="#000000"/>
    <circle cx="180" cy="280" r="5" fill="#FFFFFF"/>
    <path d="M 70 280 A 40 40 0 0 0 110 280 L 110 320 A 40 40 0 0 1 70 320 Z" fill="#FFCF40"/>
    <path d="M 70 280 A 40 40 0 0 1 110 280 L 110 320 A 40 40 0 0 0 70 320 Z" fill="#FFCF40"/>
    <path d="M 70 280 A 40 40 0 0 0 110 280 L 110 320 A 40 40 0 0 1 70 320 Z" fill="#FFCF40"/>
    <path d="M 70 280 A 40 40 0 0 1 110 280 L 110 320 A 40 40 0 0 0 70 320 Z" fill="#FFCF40"/>
    <circle cx="70" cy="280" r="10" fill="#000000"/>
    <circle cx="70" cy="280" r="5" fill="#FFFFFF"/>
    <circle cx="110" cy="280" r="10" fill="#000000"/>
    <circle cx="110" cy="280" r="5" fill="#FFFFFF"/>
</svg>


